# xmcd
#
# Track frame offsets: 
#        150
#        20631
#        44106
#        59399
#        78486
#        92635
#        115379
#        129068
#        152489
#        174104
#        196539
#        213963
#        231916
#        253924
#        272286
#        292424
#        313449
#        331067
#
# Disc length: 4771 seconds
#
# Revision: 0
# Processed by: cddbd v1.5.2PL0 Copyright (c) Steve Scherf et al.
# Submitted via: ExactAudioCopy v1.3
#
DISCID=fd12a112
DTITLE=Various Artist - Akella Presents - vol. 126 - Blues-Rock  CD2
DYEAR=2018
DGENRE=Blues
TTITLE0=Indigenous - In My Sights
TTITLE1=George Thorogood - Two Trains Running
TTITLE2=Carl Verheyen - Oh Well
TTITLE3=The Red Earth Blues Band - Wild Eyed Gypsy Man
TTITLE4=The Hollerin Sluggers - She's Like Fire
TTITLE5=Wildmen Bluesband - Get Out Of My Life Woman
TTITLE6=Them Evils - She Got Nothin'
TTITLE7=The Lachy Doley Group - If Looks Could Kill
TTITLE8=Kevin Russel - Hands On You
TTITLE9=Bugs Henderson - Anthem For The Blues
TTITLE10=Slackjaw Blues Band - When I Did Nothing Wrong
TTITLE11=Me And That Man - Shaman Blues
TTITLE12=Richie Kozen - How Blue Can You Get
TTITLE13=Scotty Bratcher - Missing You Again
TTITLE14=The Sweet Lord Animals - Crazy Faces
TTITLE15=The Wake Woods - Ships Ain't Made for Sinking
TTITLE16=The Delta Saints - Company of Thieves
TTITLE17=Orango - Born To Roll
EXTD=
EXTT0=
EXTT1=
EXTT2=
EXTT3=
EXTT4=
EXTT5=
EXTT6=
EXTT7=
EXTT8=
EXTT9=
EXTT10=
EXTT11=
EXTT12=
EXTT13=
EXTT14=
EXTT15=
EXTT16=
EXTT17=
PLAYORDER=
